<?xml version="1.0" encoding="utf-8"?>
<!-- Generator: Adobe Illustrator 20.1.0, SVG Export Plug-In . SVG Version: 6.00 Build 0)  -->
<svg version="1.1" id="Layer_1" xmlns="http://www.w3.org/2000/svg" xmlns:xlink="http://www.w3.org/1999/xlink" x="0px" y="0px"
	 viewBox="0 0 504 180" style="enable-background:new 0 0 504 180;" xml:space="preserve">
<style type="text/css">
	.st0{fill:#FFFFFF;}
</style>
<g>
	<path class="st0" d="M81.3,80.3c0-6.1,0.1-12.2,0.1-18.3c-9.3-2.9-46.9-13.8-68.4,1.1c-3.1,2.2-9.8,6.8-10.3,13.8
		C2,84.5,8.8,91.7,14.6,95.2c4,2.4,8.8,3.8,27.6,9c0.8,0.2,3.6,1,5.6,3.4c0.5,0.6,1.9,2.4,1.6,4c-0.7,3.2-9,3.8-11.7,4
		C31.3,116,20,115.6,3.7,109c0,7,0,14,0,20.9c5.8,1.4,54.8,13.3,74.5-1.9c3.1-2.4,9.4-7.2,9.9-14.6c0.5-7.5-5.1-13.4-6.2-14.6
		c-2.6-2.7-5.5-4.5-11.4-6.9c-18-7.3-30.5-7.3-31.3-12.2c-0.2-1.4,0.6-2.6,0.8-2.9c2-3.2,7.5-3,12.2-2.7
		C57.7,74.7,67.4,76,81.3,80.3z"/>
	<path class="st0" d="M150.3,53.8h-29.7L84,133.9h27.8l5.3-12.5h37.9l4.2,11.7h27.8L150.3,53.8z M123.8,106.5
		c3.9-9.9,7.8-19.9,11.7-29.8l13,29.7C140.2,106.4,132,106.4,123.8,106.5z"/>
	<path class="st0" d="M296.1,54.4h-29.7l-36.6,80.1h27.8L263,122h37.9l4.2,11.7H333L296.1,54.4z M269.6,107
		c3.9-9.9,7.8-19.9,11.7-29.8l13,29.7C286,106.9,277.8,106.9,269.6,107z"/>
	<path class="st0" d="M163.3,55.4h28.4c6.2,16.1,12.4,32.2,18.6,48.3c2.3-5.2,5.6-13,9.8-22.3c19.8-43.8,25.9-51.3,28.9-54.6
		c6.3-7,17.3-16.9,36.1-24.1c4.1,6.5,8.1,12.9,12.2,19.4c-6.1,1.6-15.1,4.7-23.9,11.4c-14.3,10.9-18.6,24.3-31.5,54.4
		c-4.3,10.1-11.3,26-20.7,45.9c-8.2,0-16.4,0-24.7,0L163.3,55.4z"/>
	<path class="st0" d="M412.5,77.4V58.9c-3.3-1.2-44.7-15.9-70.8,6.9c-3.9,3.4-15.2,13.5-15.4,28.6c-0.2,12.5,7.4,22.1,9.5,24.7
		c0.8,0.9,4.4,5.1,11,9c12.1,7.2,24.3,7.4,36.5,7.4c7.6,0,18.7-0.7,31.8-4c0-13.9,0-27.7,0-41.6h-35.3v14.8h11.1v9.8
		c-3,0.4-7.3,0.7-12.5,0.3c-4.9-0.5-8.8-0.8-12.7-2.9c-5.5-2.9-11.9-9.8-11.7-18.3c0.3-12.3,14.2-18.5,16.2-19.4
		c5.9-2.6,11.2-2.5,17-2.4C393.2,72,402.1,73,412.5,77.4z"/>
	<path class="st0" d="M424.3,133.9c0-26.3,0.1-52.7,0.1-79h68.7v17h-42.7v13.5h38.7v17h-39V118h42.2v15.4
		C469.7,133.5,447,133.7,424.3,133.9z"/>
	<path class="st0" d="M371.8,19v-1.6h-6.1V15h-6.6v-2h-2.3v1.7h-6.2v-3.4h-4.2V8.5h-8.9V6.4h-10.3v2.4h-3.8v0.1h-2.1V4.6h2.1v1.7
		h3.8V4.5h-12.4v2h-4.3v-2h2V2.1H302v2h-6.6V2.7h-2.3v3h-5.2V7h-3.4l11,13.5h4v-2h6.8v-2.1h8.2v2h2.7v-2.3h5.8v1.7h8.9v2.7h12.5v2.5
		h2v2.5h2.1v2.1h2.4v-2.4h8.2v2.3h4.2v4.8H361v1.2l2.8,0.1h3.8V26h6.4v1.2h1.9v-1.5h2.5V19H371.8z M297.5,19.6h-2.3v-2.3h2.3V19.6z
		 M298.4,10.9h-5.2c-0.1-0.8-0.2-1.5-0.3-2.3c1.8,0,3.6,0,5.4,0V10.9z M301.7,17.4h-2.3V15h2.3V17.4z M301.8,12.9h-2.3v-2.3h2.3
		V12.9z M301.9,6.9h-2.2V4.7h2.2V6.9z M312.4,15.4h-2.1v-2.1h2.1V15.4z M312.4,11.1h-2.1H306v1.4h-1.9L304,9.3h2.1V6.6h2.1v2h2.2V9
		h2.1V11.1z M316.9,8.8h-2.1V6.7h2.1V8.8z M323,11.3h2.5v2.5H323V11.3z M327.3,16.1h-2.2v-2.2h2.2V16.1z M333.7,16.7H332h-0.5h-1.9
		v-2.5h1.9v-2.1h2.2V16.7z M340.1,19.4c-1.4,0-2.8,0-4.2,0.1c0-1.4,0-2.8,0-4.2h2.4v-2.4h-2.6v-2h-1.9V8.9h2.1v1.8h2.5l-0.1,2.3h1.9
		V19.4z M344.6,13.3h-2.5v-2.5h2.5V13.3z M348.2,17.8h-2.4v-2.4h2.4V17.8z M350.6,23.5h-1.9v-1.9h1.9V23.5z M359.7,21.7h-5.1v-2.1
		h5.1V21.7z M363.5,21.1h-2v-3.7h2V21.1z M365.5,28h-1.9v-2.4h1.9V28z M371.9,23.7h-4.3v-2.3h4.3V23.7z"/>
</g>
<g>
	<path class="st0" d="M23.8,170.6c-2.3,1.1-4.1,1.4-5.6,1.4c-4.7,0-7.9-1.6-10-3.7c-2.3-2.2-4-5.6-4-9.7c0-4,1.7-7.4,4-9.6
		c2.3-2.2,5.5-3.7,9.5-3.7c1.7,0,3.6,0.3,6.1,1.4v6.8c-1.3-1.4-3.2-2.7-6-2.7c-2.1,0-3.9,0.7-5.2,2c-1.4,1.4-2.4,3.4-2.4,5.9
		c0,2.6,1.1,4.5,2.2,5.6c0.5,0.5,2.4,2.1,5.5,2.1c1.5,0,3.6-0.4,5.8-2.6V170.6z"/>
	<path class="st0" d="M62.5,149c2.4,2.3,4,5.7,4,9.6c0,3.4-1.2,6.9-4,9.5c-2.4,2.3-5.6,3.7-9.8,3.7c-4.8,0-8-1.9-9.9-3.7
		c-2.4-2.3-4-5.7-4-9.5c0-3.7,1.6-7.4,3.9-9.7c1.7-1.7,4.9-3.7,10-3.7C56.6,145.3,60,146.5,62.5,149z M47,152.9
		c-1.1,1.1-2.3,2.9-2.3,5.8c0,2.3,0.8,4.2,2.3,5.7c1.6,1.6,3.5,2.1,5.5,2.1c2.6,0,4.4-1,5.7-2.2c1-1,2.2-2.7,2.2-5.7
		c0-2.6-1.1-4.6-2.2-5.7c-1.3-1.2-3.3-2.2-5.6-2.2C50.4,150.7,48.4,151.5,47,152.9z"/>
	<path class="st0" d="M82.3,171.4v-25.5h5.1l13.8,16.4v-16.4h5.9v25.5H102l-13.8-16.5v16.5H82.3z"/>
	<path class="st0" d="M127.9,145.9l6.5,16.3l6.5-16.3h6.3l-10.8,25.5h-4l-10.8-25.5H127.9z"/>
	<path class="st0" d="M175.9,150.9h-8.5v4.9h8.1v5h-8.1v5.7h8.5v5h-14.4v-25.5h14.4V150.9z"/>
	<path class="st0" d="M198.5,159.5l-9.1-13.6h6.9l5.1,7.9l5.1-7.9h6.9l-9.1,13.6v11.9h-5.9V159.5z"/>
	<path class="st0" d="M233.7,145.9v25.5h-5.9v-25.5H233.7z"/>
	<path class="st0" d="M250.8,171.4v-25.5h5.1l13.8,16.4v-16.4h5.9v25.5h-5.1l-13.8-16.5v16.5H250.8z"/>
	<path class="st0" d="M304.9,157.5h12.6v0.3c0,3.1-1.1,7.8-3.9,10.7s-6.1,3.5-9.1,3.5c-3.1,0-6.3-0.5-9.3-3.5
		c-1.5-1.5-3.7-4.6-3.7-9.7c0-4.2,1.5-7.5,3.7-9.7c3.1-3.2,7-3.7,10-3.7c2.1,0,4.8,0.3,7.1,1.9c1.7,1.1,3.2,2.9,4.1,4.5l-5.3,2.9
		c-0.5-1-1.3-2-2.3-2.7c-1.1-0.8-2.4-1.2-3.9-1.2c-2.3,0-4,0.8-5.3,2.1c-1.4,1.5-2.2,3.7-2.2,6c0,2.9,1.1,4.8,2.1,5.8
		c1.5,1.5,3.2,2,5.2,2c2.5,0,3.9-0.9,4.4-1.4c0.2-0.2,1.3-1.1,1.8-3h-6.1V157.5z"/>
	<path class="st0" d="M335.7,165.5l5,0.3l-5.8,10.7l-3.4-0.2L335.7,165.5z"/>
	<path class="st0" d="M384.6,145.9v25.5h-5.9v-25.5H384.6z"/>
	<path class="st0" d="M401.8,171.4v-25.5h5.1l13.8,16.4v-16.4h5.9v25.5h-5.1l-13.8-16.5v16.5H401.8z"/>
	<path class="st0" d="M462,170.6c-2.3,1.1-4.1,1.4-5.6,1.4c-4.7,0-7.9-1.6-10-3.7c-2.3-2.2-4-5.6-4-9.7c0-4,1.7-7.4,4-9.6
		c2.3-2.2,5.5-3.7,9.5-3.7c1.7,0,3.6,0.3,6.1,1.4v6.8c-1.3-1.4-3.2-2.7-6-2.7c-2.1,0-3.9,0.7-5.2,2c-1.4,1.4-2.4,3.4-2.4,5.9
		c0,2.6,1.1,4.5,2.2,5.6c0.5,0.5,2.4,2.1,5.5,2.1c1.5,0,3.6-0.4,5.8-2.6V170.6z"/>
	<path class="st0" d="M480.7,165c1.9,0,3.5,1.5,3.5,3.5s-1.5,3.5-3.5,3.5s-3.5-1.5-3.5-3.5S478.7,165,480.7,165z"/>
</g>
</svg>
